<svg width="25" height="65" viewBox="0 0 25 65" fill="none" xmlns="http://www.w3.org/2000/svg">
<rect x="0.200256" y="0.200256" width="24.4194" height="64.4415" rx="4.20794" stroke="#7B61FF" stroke-width="0.400757" stroke-dasharray="2 2"/>
<path d="M18.412 12.4107C18.412 9.09751 15.724 6.40942 12.4107 6.40942C9.09751 6.40942 6.40942 9.09751 6.40942 12.4107C6.40942 15.724 9.09751 18.412 12.4107 18.412C15.724 18.412 18.412 15.724 18.412 12.4107Z" stroke="white" stroke-opacity="0.8" stroke-width="1.00189" stroke-miterlimit="10"/>
<path d="M12.4103 15.6625C12.3099 15.6624 12.2119 15.6321 12.1289 15.5755C10.9004 14.7415 10.3683 14.1688 10.0751 13.8121C9.44985 13.0503 9.15037 12.2678 9.15912 11.4206C9.16881 10.4496 9.94753 9.65967 10.8951 9.65967C11.5328 9.65967 11.9892 9.99198 12.2737 10.2977C12.2912 10.3163 12.3123 10.331 12.3358 10.3411C12.3592 10.3512 12.3845 10.3564 12.41 10.3564C12.4355 10.3564 12.4607 10.3512 12.4842 10.3411C12.5076 10.331 12.5288 10.3163 12.5463 10.2977C12.8311 9.99198 13.2872 9.65967 13.9249 9.65967C14.8724 9.65967 15.6512 10.4496 15.6608 11.4206C15.6696 12.2678 15.3698 13.0503 14.7449 13.8121C14.4517 14.1697 13.9196 14.7415 12.691 15.5755C12.6083 15.632 12.5105 15.6622 12.4103 15.6625Z" fill="white" fill-opacity="0.8"/>
<path d="M12.4113 25.9204C8.82642 25.9204 5.90985 28.837 5.90985 32.4218C5.90985 36.0067 8.82642 38.9232 12.4113 38.9232C15.9961 38.9232 18.9127 36.0067 18.9127 32.4218C18.9127 28.837 15.9961 25.9204 12.4113 25.9204ZM14.7458 33.8228C14.4526 34.1803 13.9207 34.752 12.6923 35.586C12.6094 35.6427 12.5114 35.673 12.411 35.673C12.3105 35.673 12.2125 35.6427 12.1296 35.586C10.9013 34.752 10.3693 34.1794 10.0761 33.8228C9.45093 33.061 9.15149 32.2787 9.16025 31.4316C9.16994 30.4608 9.94854 29.6709 10.8959 29.6709C11.5336 29.6709 11.9899 30.0032 12.2744 30.3089C12.2919 30.3274 12.313 30.3422 12.3364 30.3523C12.3599 30.3624 12.3851 30.3676 12.4106 30.3676C12.4362 30.3676 12.4614 30.3624 12.4848 30.3523C12.5083 30.3422 12.5294 30.3274 12.5469 30.3089C12.8317 30.0032 13.2877 29.6709 13.9253 29.6709C14.8727 29.6709 15.6513 30.4608 15.661 31.4316C15.6704 32.2787 15.3707 33.061 14.7458 33.8228Z" fill="white" fill-opacity="0.8"/>
<path d="M12.4113 45.9314C8.82642 45.9314 5.90985 48.848 5.90985 52.4328C5.90985 56.0177 8.82642 58.9342 12.4113 58.9342C15.9961 58.9342 18.9127 56.0177 18.9127 52.4328C18.9127 48.848 15.9961 45.9314 12.4113 45.9314ZM14.7458 53.8337C14.4802 54.1576 13.5053 55.0365 12.4113 55.8189C11.3173 55.0374 10.3424 54.1576 10.0767 53.8337C9.45156 53.072 9.15212 52.2897 9.16087 51.4426C9.17056 50.4718 9.94917 49.6819 10.8966 49.6819C11.5842 49.6819 12.0624 50.0698 12.3403 50.3933L12.4113 50.4793L12.4822 50.3933C12.7551 50.0664 13.2371 49.6822 13.926 49.6822C14.8734 49.6822 15.652 50.4721 15.6617 51.4429C15.6704 52.2897 15.3707 53.072 14.7458 53.8337Z" fill="white" fill-opacity="0.8"/>
</svg>
