<svg fill="none" xmlns="http://www.w3.org/2000/svg" width="100%" height="100%" viewBox="-0.5 -1.5 19 19" preserveAspectRatio="xMidYMid meet">
<path d="M16 10.25H13C12.8619 10.25 12.75 10.1381 12.75 10V1C12.75 0.861929 12.8619 0.75 13 0.75H16C16.6904 0.75 17.25 1.30964 17.25 2V9C17.25 9.69036 16.6904 10.25 16 10.25Z" stroke="#CED0D6" stroke-width="1.5"/>
<path d="M8.10938 15.25H8C7.30964 15.25 6.75 14.6904 6.75 14V10.25H2C1.30964 10.25 0.75 9.69036 0.75 9V4.82812C0.75008 4.49671 0.881862 4.17868 1.11621 3.94434L3.94434 1.11621C4.17869 0.881861 4.49671 0.75008 4.82812 0.75H12.75V10.7119L9.03809 14.8359C8.80106 15.0993 8.46369 15.25 8.10938 15.25Z" stroke="#CED0D6" stroke-width="1.5"/>
</svg>
