<svg fill="none" xmlns="http://www.w3.org/2000/svg" width="100%" height="100%" viewBox="-0.5 -0.5 18 18" preserveAspectRatio="xMidYMid meet">
<path d="M14.9621 8.73269C14.9872 8.49188 15 8.24744 15 8C15 4.13401 11.866 1 8 1C4.13401 1 1 4.13401 1 8C1 11.866 4.13401 15 8 15C8.24744 15 8.49188 14.9872 8.73269 14.9621C8.2694 14.2547 8 13.4088 8 12.5C8 10.0147 10.0147 8 12.5 8C13.4088 8 14.2547 8.2694 14.9621 8.73269Z" fill="#402929"/>
<path d="M8.25419 13.9947C8.1699 13.9982 8.08516 14 8 14C4.68629 14 2 11.3137 2 8C2 4.68629 4.68629 2 8 2C11.3137 2 14 4.68629 14 8C14 8.08516 13.9982 8.1699 13.9947 8.25419C14.3382 8.37511 14.6626 8.53652 14.9621 8.73269C14.9872 8.49188 15 8.24744 15 8C15 4.13401 11.866 1 8 1C4.13401 1 1 4.13401 1 8C1 11.866 4.13401 15 8 15C8.24744 15 8.49188 14.9872 8.73269 14.9621C8.53652 14.6626 8.37511 14.3382 8.25419 13.9947Z" fill="#DB5C5C"/>
<path d="M9.02246 5.0625V6.65234H10.6494L10.6436 7.6709H9.02246V9.64355C8.46929 10.3162 8.10769 11.1523 8.02051 12.0684C7.91983 11.863 7.86237 11.6306 7.8623 11.3789L7.85645 7.6709H6.6416L6.64746 6.65234H7.43945C7.74608 6.65221 7.96077 6.43747 7.96094 6.13086V5.0625H9.02246Z" fill="#DB5C5C"/>
<path fill-rule="evenodd" clip-rule="evenodd" d="M16 12.5C16 14.433 14.433 16 12.5 16C10.567 16 9 14.433 9 12.5C9 10.567 10.567 9 12.5 9C14.433 9 16 10.567 16 12.5ZM15 12.5C15 13.8807 13.8807 15 12.5 15C11.9905 15 11.5165 14.8476 11.1213 14.5858L14.5858 11.1213C14.8476 11.5165 15 11.9905 15 12.5ZM10.4142 13.8787L13.8787 10.4142C13.4835 10.1524 13.0096 10 12.5 10C11.1193 10 10 11.1193 10 12.5C10 13.0096 10.1524 13.4835 10.4142 13.8787Z" fill="#DB5C5C"/>
</svg>
