<svg fill="none" xmlns="http://www.w3.org/2000/svg" width="100%" height="100%" viewBox="0 0 18 18" preserveAspectRatio="xMidYMid meet">
<path fill-rule="evenodd" clip-rule="evenodd" d="M4.46484 5.13986C4.46484 5.38119 4.59359 5.60419 4.80259 5.72486C5.01159 5.84553 5.26909 5.84553 5.47809 5.72486C5.68709 5.60419 5.81584 5.38119 5.81584 5.13986C5.81584 4.76679 5.51341 4.46436 5.14034 4.46436C4.76727 4.46436 4.46484 4.76679 4.46484 5.13986ZM9.86884 9.96486C9.86884 10.5511 10.3441 11.0264 10.9303 11.0264C11.5166 11.0264 11.9918 10.5511 11.9918 9.96486C11.9918 9.58562 11.7895 9.23519 11.4611 9.04557C11.1327 8.85596 10.728 8.85596 10.3996 9.04557C10.0712 9.23519 9.86884 9.58562 9.86884 9.96486Z" fill="#548AF7"/>
<path fill-rule="evenodd" clip-rule="evenodd" d="M8.0347 4.17496C8.0347 4.70791 8.46675 5.13996 8.9997 5.13996C9.53265 5.13996 9.9647 4.70791 9.9647 4.17496C9.9647 3.64201 9.53265 3.20996 8.9997 3.20996C8.46675 3.20996 8.0347 3.64201 8.0347 4.17496ZM6.3942 8.99996C6.3942 9.24129 6.52295 9.46429 6.73195 9.58496C6.94095 9.70563 7.19845 9.70563 7.40745 9.58496C7.61645 9.46429 7.7452 9.24129 7.7452 8.99996C7.7452 8.62689 7.44277 8.32446 7.0697 8.32446C6.69663 8.32446 6.3942 8.62689 6.3942 8.99996ZM3.5957 11.895C3.5957 12.1018 3.70606 12.293 3.8852 12.3964C4.06434 12.4998 4.28506 12.4998 4.4642 12.3964C4.64334 12.293 4.7537 12.1018 4.7537 11.895C4.7537 11.5752 4.49447 11.316 4.1747 11.316C3.85493 11.316 3.5957 11.5752 3.5957 11.895ZM13.2457 13.825C13.2457 14.0318 13.3561 14.223 13.5352 14.3264C13.7143 14.4298 13.9351 14.4298 14.1142 14.3264C14.2933 14.223 14.4037 14.0318 14.4037 13.825C14.4037 13.6181 14.2933 13.427 14.1142 13.3235C13.9351 13.2201 13.7143 13.2201 13.5352 13.3235C13.3561 13.427 13.2457 13.6181 13.2457 13.825Z" fill="#CED0D6"/>
<path fill-rule="evenodd" clip-rule="evenodd" d="M12.2815 6.10488C12.2815 6.31174 12.3918 6.50288 12.571 6.60631C12.7501 6.70974 12.9708 6.70974 13.15 6.60631C13.3291 6.50288 13.4395 6.31174 13.4395 6.10488C13.4395 5.89802 13.3291 5.70688 13.15 5.60345C12.9708 5.50002 12.7501 5.50002 12.571 5.60345C12.3918 5.70688 12.2815 5.89802 12.2815 6.10488ZM7.4082 13.8249C7.4082 14.1713 7.68903 14.4521 8.03545 14.4521C8.38187 14.4521 8.6627 14.1713 8.6627 13.8249C8.6627 13.6008 8.54315 13.3937 8.34908 13.2817C8.155 13.1696 7.9159 13.1696 7.72182 13.2817C7.52775 13.3937 7.4082 13.6008 7.4082 13.8249Z" fill="#A571E6"/>
<path d="M4.03038 2.8965H13.9699C14.5961 2.8965 15.1038 3.40415 15.1038 4.03038V13.9699C15.1038 14.5961 14.5961 15.1038 13.9699 15.1038H4.03038C3.40415 15.1038 2.8965 14.5961 2.8965 13.9699V4.03038C2.8965 3.40415 3.40415 2.8965 4.03038 2.8965ZM4.03038 1.59375C2.68466 1.59375 1.59375 2.68466 1.59375 4.03038V13.9699C1.59375 15.3156 2.68466 16.4065 4.03038 16.4065H13.9699C15.3156 16.4065 16.4065 15.3156 16.4065 13.9699V4.03038C16.4065 2.68466 15.3156 1.59375 13.9699 1.59375H4.03038Z" fill="#868A91"/>
</svg>
